<svg width="256" height="256" viewBox="0 0 256 256" fill="none" xmlns="http://www.w3.org/2000/svg">
<path d="M83.9685 163.37L51.15 196.481C47.5035 199.793 42.6415 202 37.3375 202C32.2089 202 27.2903 199.965 23.6638 196.343C20.0373 192.721 18 187.808 18 182.685V179.926L29.05 98.4726C31.3705 72.977 52.697 53 78.775 53H178.225C204.303 53 225.63 72.977 227.95 98.4726L239 179.926V182.685C239 187.808 236.963 192.721 233.336 196.343C229.71 199.965 224.791 202 219.663 202C214.359 202 209.497 199.793 205.85 196.481L173.032 163.37H83.9685ZM73.25 75.0741V97.1481H51.15V108.185H73.25V130.259H84.3V108.185H106.4V97.1481H84.3V75.0741H73.25ZM178.225 75.0741C176.027 75.0741 173.919 75.9462 172.365 77.4986C170.811 79.051 169.938 81.1564 169.938 83.3519C169.938 85.5473 170.811 87.6527 172.365 89.2051C173.919 90.7575 176.027 91.6296 178.225 91.6296C180.423 91.6296 182.531 90.7575 184.085 89.2051C185.639 87.6527 186.513 85.5473 186.513 83.3519C186.513 81.1564 185.639 79.051 184.085 77.4986C182.531 75.9462 180.423 75.0741 178.225 75.0741ZM158.888 94.3889C156.69 94.3889 154.582 95.261 153.027 96.8134C151.473 98.3658 150.6 100.471 150.6 102.667C150.6 104.862 151.473 106.968 153.027 108.52C154.582 110.072 156.69 110.944 158.888 110.944C161.085 110.944 163.193 110.072 164.748 108.52C166.302 106.968 167.175 104.862 167.175 102.667C167.175 100.471 166.302 98.3658 164.748 96.8134C163.193 95.261 161.085 94.3889 158.888 94.3889ZM197.563 94.3889C195.365 94.3889 193.257 95.261 191.702 96.8134C190.148 98.3658 189.275 100.471 189.275 102.667C189.275 104.862 190.148 106.968 191.702 108.52C193.257 110.072 195.365 110.944 197.563 110.944C199.76 110.944 201.868 110.072 203.423 108.52C204.977 106.968 205.85 104.862 205.85 102.667C205.85 100.471 204.977 98.3658 203.423 96.8134C201.868 95.261 199.76 94.3889 197.563 94.3889ZM178.225 113.704C176.027 113.704 173.919 114.576 172.365 116.128C170.811 117.681 169.938 119.786 169.938 121.981C169.938 124.177 170.811 126.282 172.365 127.835C173.919 129.387 176.027 130.259 178.225 130.259C180.423 130.259 182.531 129.387 184.085 127.835C185.639 126.282 186.513 124.177 186.513 121.981C186.513 119.786 185.639 117.681 184.085 116.128C182.531 114.576 180.423 113.704 178.225 113.704Z" fill="#F8F8F8"/>
</svg>
