<svg width="64" height="64" viewBox="0 0 64 64" fill="none" xmlns="http://www.w3.org/2000/svg">
<path d="M45.4766 23.4745C39.1527 20.5494 30.0479 18.6852 21.489 19.3752C21.9216 16.5429 22.9825 14.5654 24.7128 14.1534C27.1023 13.5766 29.708 15.1524 32.2005 18.0157C33.8278 18.2217 35.7641 18.6028 37.1031 18.9118C32.5713 10.3838 26.4843 5.5945 21.8598 7.36602C18.3374 8.70495 16.535 13.556 16.7512 20.0653C12.168 21.0438 8.59404 22.7741 6.30754 25.2666C6.19425 25.4005 5.92646 25.7403 6.01916 25.9051C6.09125 26.0287 6.32814 25.8948 6.42084 25.8227C9.07811 23.9688 12.4667 22.9595 16.8954 22.3312C17.5237 29.2731 20.4591 38.0895 25.341 45.1549C22.6735 46.2055 20.4385 46.2673 19.2025 44.9695C17.5134 43.1877 17.5649 40.1391 18.8009 36.5548C18.1726 35.0408 17.5237 33.1766 17.122 31.8583C12.0032 40.0464 10.9011 47.7092 14.7428 50.8299C17.6679 53.2091 22.7559 52.344 28.2867 48.9039C31.4281 52.3852 34.7136 54.6099 38.0094 55.3514C38.1845 55.3823 38.6068 55.4441 38.6995 55.2793C38.7716 55.1557 38.5347 55.0219 38.4214 54.9704C35.4861 53.6005 32.9215 51.1595 30.1612 47.6474C35.8568 43.6306 42.0159 36.6784 45.7032 28.9229C47.9485 30.715 49.1226 32.6204 48.6179 34.3301C47.9176 36.6887 45.25 38.1616 41.5319 38.8825C40.5328 40.1906 39.2454 41.6737 38.3081 42.683C47.9588 43.0229 55.1478 40.1391 55.9306 35.2571C56.528 31.539 53.2321 27.5531 47.485 24.4838C48.9372 20.0241 49.2153 16.0691 48.206 12.8351C48.1442 12.6703 47.9897 12.2686 47.794 12.2686C47.6498 12.2686 47.6498 12.5364 47.6601 12.66C47.9691 15.8837 47.1451 19.334 45.4766 23.4745V23.4745ZM27.6996 44.0426C23.621 37.4921 21.2624 29.7675 21.2727 21.9707C28.9871 21.7132 36.8456 23.526 43.6021 27.4501C39.9766 34.2477 34.4664 40.1494 27.6996 44.0426Z" fill="white"/>
</svg>
