<?xml version="1.0" encoding="utf-8"?>
<!-- Generator: Adobe Illustrator 24.3.0, SVG Export Plug-In . SVG Version: 6.00 Build 0)  -->
<svg version="1.1" id="Layer_1" xmlns="http://www.w3.org/2000/svg" xmlns:xlink="http://www.w3.org/1999/xlink" x="0px" y="0px"
	 viewBox="0 0 279 48" style="enable-background:new 0 0 279 48;" xml:space="preserve">
<g id="XGP_2020_White">
	<g>
		<g>
			<g>
				<g>
					<path d="M24.6,19.5C24.6,19.4,24.7,19.4,24.6,19.5c7.1,5.2,19.2,18.2,15.5,21.8c-9,7.6-22.1,7.6-31.1,0
						C5.4,37.6,17.5,24.7,24.6,19.5L24.6,19.5 M36.9,4.4c-7.6-4.5-17-4.5-24.6,0v0.1h0.1C17,3.6,23.9,7.4,24.6,7.8l0,0l0,0
						c0.7-0.4,7.6-4.2,12.2-3.3L36.9,4.4C37,4.5,37,4.4,36.9,4.4 M8.1,7.6C8,7.6,8,7.6,8.1,7.6c-8.5,8.1-9.4,21.2-2.2,30.3
						c0,0,0.1,0.1,0.1,0v-0.1c-1.8-5.4,7.4-18.6,12.2-24.1c0,0,0,0,0-0.1c0,0,0,0,0-0.1C10.9,6.6,8.5,7.4,8.1,7.6 M31.1,13.6
						L31.1,13.6c-0.1,0.1-0.1,0.1,0,0.1c4.8,5.5,14,18.6,12.1,24.1v0.1h0.1c7.2-9.1,6.3-22.2-2.1-30.2l-0.1-0.1
						C40.7,7.4,38.3,6.7,31.1,13.6 M105,10.5h-4.9L89,38.2h4.5l2.8-7.2h12.6l2.8,7.2h4.5L105,10.5z M97.6,27.3l4.9-12.6l4.9,12.6
						H97.6z M86.7,23.6v14.6h-4.1v-3.6c-1,1.4-2.3,2.4-3.8,3.2c-1.7,0.7-3.5,1.1-5.3,1.1c-1.9,0-3.8-0.3-5.5-1
						c-1.6-0.7-3.1-1.7-4.3-3s-2.2-2.9-2.8-4.6c-0.6-1.9-0.9-3.9-0.9-5.9s0.3-4,0.9-5.9c0.6-1.7,1.6-3.3,2.8-4.6s2.7-2.3,4.4-3
						c1.8-0.7,3.7-1,5.6-1c3.1-0.1,6.1,0.8,8.7,2.6c2.2,1.7,3.7,4.3,4.1,7.1l0,0H82l0,0c-0.4-1.8-1.4-3.3-2.8-4.4
						c-1.6-1.1-3.5-1.7-5.4-1.6c-2.6-0.1-5.1,0.9-6.8,2.9c-1.8,2.2-2.7,5-2.5,7.8c-0.2,2.8,0.8,5.6,2.5,7.8c1.7,1.9,4.2,3,6.8,2.9
						c2.3,0.1,4.5-0.7,6.2-2.2c1.6-1.4,2.6-3.4,2.7-5.6h-8.3v-3.6C74.4,23.6,86.7,23.6,86.7,23.6z M156.2,14.3v8h14.1v3.5h-14.1v8.5
						h15.9v3.8h-20.3V10.5h20.3v3.8H156.2z M147.5,10.5v27.6h-4.2V16.2c-0.5,1.5-1.3,3.5-2.1,5.7l-6.4,16.2h-3.6l0,0l-6.5-16.2
						c-0.8-2-1.5-3.9-2.1-5.6v21.8h-4.2V10.5h6l5.8,14.7c1.2,3,2.1,5.6,2.9,7.7c0.9-2.5,1.8-5.2,2.9-8.1l5.6-14.3L147.5,10.5z
						 M202.2,12.9c-2-1.7-4.6-2.5-7.2-2.4h-12.1v27.6h4.3V28h7.7c2.6,0.2,5.2-0.7,7.2-2.4c1.7-1.6,2.7-4,2.6-6.4
						C204.9,16.9,203.9,14.5,202.2,12.9 M187.2,14.2h7.7c1.5-0.1,2.9,0.4,4,1.3c1,1,1.5,2.3,1.4,3.7c0.1,1.4-0.4,2.7-1.3,3.7
						c-1.1,0.9-2.6,1.4-4,1.3h-7.7L187.2,14.2z M252.8,30.5c0.1,2.4-1,4.7-2.9,6.1c-1.9,1.5-4.7,2.2-8.1,2.2c-3.7,0-6.7-0.8-8.7-2.5
						c-2.2-1.8-3.4-4.5-3.2-7.3l0,0h4.3l0,0c-0.1,1.8,0.7,3.5,2,4.6c1.7,1.1,3.7,1.7,5.7,1.5c1.7,0.1,3.3-0.3,4.8-1.2
						c1.1-0.8,1.7-2,1.7-3.4c0.1-1.1-0.5-2.2-1.4-2.8c-1.5-0.9-3.2-1.5-5-1.8l-2.4-0.5c-2.4-0.3-4.7-1.3-6.6-2.8
						c-1.5-1.4-2.3-3.3-2.2-5.4c-0.1-2.2,1-4.2,2.7-5.5c2.2-1.4,4.7-2.1,7.3-2c3.7,0,6.5,0.8,8.4,2.3c1.9,1.6,3,4,2.9,6.4l0,0h-4.3
						l0,0c0-1.5-0.7-2.9-1.8-3.9c-1.1-0.8-2.8-1.2-5.2-1.2c-1.5-0.1-2.9,0.3-4.2,1c-0.9,0.6-1.5,1.7-1.5,2.8
						c-0.1,1.1,0.4,2.2,1.3,2.8c1.5,0.9,3.1,1.5,4.8,1.8l2.5,0.5c3.2,0.7,5.6,1.6,7,2.9C252,26.7,252.8,28.6,252.8,30.5 M278,30.5
						c0.1,2.4-1,4.7-2.9,6.1c-1.9,1.5-4.7,2.2-8.1,2.2c-3.7,0-6.7-0.8-8.8-2.5c-2.2-1.8-3.3-4.5-3.2-7.3l0,0h4.3l0,0
						c-0.1,1.8,0.7,3.5,2,4.6c1.7,1.1,3.7,1.7,5.7,1.5c1.7,0.1,3.4-0.3,4.8-1.2c1.1-0.8,1.7-2,1.7-3.4c0-1.1-0.5-2.1-1.4-2.8
						c-1.5-0.9-3.2-1.5-5-1.8l-2.4-0.5c-2.4-0.3-4.7-1.3-6.6-2.8c-1.5-1.4-2.3-3.3-2.2-5.4c-0.1-2.2,1-4.2,2.7-5.5
						c2.2-1.4,4.7-2.1,7.3-2c3.7,0,6.5,0.8,8.4,2.3c1.9,1.6,3,4,2.9,6.4l0,0h-4.3l0,0c0-1.5-0.7-2.9-1.8-3.9
						c-1.1-0.8-2.8-1.2-5.2-1.2c-1.5-0.1-2.9,0.3-4.2,1c-1,0.6-1.5,1.7-1.5,2.8c-0.1,1.1,0.4,2.2,1.3,2.8c1.5,0.9,3.1,1.5,4.8,1.8
						l2.5,0.5c3.2,0.7,5.6,1.6,7,2.9C277.3,26.7,278.1,28.6,278,30.5 M217.7,10.5h-4.9l-11.1,27.7h4.5L209,31h12.6l2.7,7.2h4.5
						L217.7,10.5z M210.3,27.3l4.9-12.6l4.9,12.6H210.3z"/>
				</g>
			</g>
		</g>
	</g>
</g>
</svg>
