<svg width="64" height="64" viewBox="0 0 64 64" fill="none" xmlns="http://www.w3.org/2000/svg">
<path d="M1.29529 44.1391C-1.10319 45.7382 -0.303807 48.7762 4.81311 50.2155C10.0902 51.9744 15.8467 52.4542 21.4434 51.4947C21.7633 51.4947 22.0829 51.3348 22.2427 51.3348V45.898L16.8059 47.6569C14.727 48.2965 12.6481 48.4563 10.5696 47.9768C8.9705 47.4971 9.29046 46.5375 11.2092 45.7382L22.2427 41.9004V35.9838L6.89164 41.2608C4.97292 41.9004 3.05386 42.8599 1.29495 44.1391H1.29529ZM38.3935 20.1529V35.6638C44.9498 38.862 50.0667 35.6638 50.0667 27.3487C50.0667 19.0336 47.0283 15.036 38.2337 11.9976C33.5962 10.3985 28.7993 8.95953 24.002 8V54.2131L35.1953 57.5711V18.7136C35.1953 16.9547 35.1953 15.6752 36.4745 16.155C38.2334 16.6347 38.3932 18.3936 38.3932 20.1526L38.3935 20.1529ZM59.1815 40.4611C54.5444 38.862 49.5872 38.2224 44.7899 38.7022C42.2313 38.862 39.8328 39.5016 37.5942 40.3013L37.1144 40.4611V46.6974L47.5084 42.8596C49.5872 42.22 51.6661 42.0602 53.7446 42.5396C55.3437 43.0194 55.0238 43.9789 53.1051 44.7783L37.1144 50.6949V56.7714L59.1815 48.6161C60.7806 47.9765 62.2199 47.1768 63.499 45.8976C64.6184 44.2985 64.1386 42.0599 59.1815 40.4608V40.4611Z" fill="white"/>
</svg>
