<svg width="64" height="64" viewBox="0 0 64 64" fill="none" xmlns="http://www.w3.org/2000/svg">
<path d="M31.9569 7C18.8007 7 8.02347 17.2367 7 30.2448L20.4227 35.8452C21.5947 35.034 22.9866 34.6002 24.4122 34.6018C24.5453 34.6018 24.6771 34.6054 24.8068 34.6127L30.7766 25.8802V25.758C30.7766 20.5034 35.013 16.2274 40.2206 16.2274C45.4282 16.2274 49.6643 20.5034 49.6643 25.758C49.6643 31.0125 45.428 35.29 40.2206 35.29C40.1483 35.29 40.0779 35.2881 40.0061 35.2865L31.4919 41.4148C31.4974 41.5285 31.5008 41.642 31.5008 41.7537C31.5008 45.6999 28.3205 48.9091 24.4122 48.9091C20.9814 48.9091 18.1109 46.4369 17.4622 43.1647L7.86139 39.159C10.8347 49.7671 20.4929 57.5441 31.9569 57.5441C45.7885 57.5441 57 46.228 57 32.272C57 18.3159 45.7885 7 31.9569 7ZM22.6938 45.346L19.618 44.0631C20.1623 45.209 21.1064 46.1675 22.3588 46.6941C25.0652 47.8327 28.1862 46.5372 29.3142 43.8037C29.8604 42.4893 29.8636 41.0121 29.3231 39.6953C28.7825 38.3691 27.7608 37.3347 26.4508 36.7833C25.1481 36.2374 23.7533 36.2572 22.5279 36.724L25.7066 38.0502C27.7032 38.8901 28.6473 41.2036 27.8149 43.2181C26.9842 45.2325 24.6902 46.186 22.6938 45.346V45.346ZM46.5136 25.7582C46.5136 22.2572 43.69 19.4067 40.2212 19.4067C36.7523 19.4067 33.927 22.2574 33.927 25.7582C33.927 29.259 36.7505 32.1083 40.2212 32.1083C43.6918 32.1083 46.5136 29.2594 46.5136 25.7582ZM35.5038 25.7475C35.5038 23.1131 37.621 20.9779 40.2305 20.9779C42.8399 20.9779 44.9585 23.1131 44.9585 25.7475C44.9585 28.3818 42.8414 30.5172 40.2303 30.5172C37.6192 30.5172 35.5036 28.3818 35.5036 25.7477L35.5038 25.7475Z" fill="white"/>
</svg>
