<svg width="64" height="64" viewBox="0 0 64 64" fill="none" xmlns="http://www.w3.org/2000/svg">
<path d="M18.1377 11.2474C18.2661 11.1248 18.4003 11.0082 18.5461 10.9031C22.4668 8.35939 26.9883 7 32.0058 7C36.6966 7 41.0957 8.30105 44.8413 10.5531C45.1155 10.7106 45.8623 11.224 46.2415 11.6849C42.6184 7.69428 31.9767 16.2649 31.9767 16.2649C28.3011 13.4236 24.9113 11.4924 22.3967 10.7981C20.2847 10.2205 18.832 10.7048 18.1377 11.2474V11.2474ZM50.3372 15.0163C50.2322 14.8938 50.1097 14.783 49.9988 14.6546C49.0887 13.6511 47.9626 13.4119 46.9475 13.4702C46.0198 13.7678 41.7549 15.3022 36.4982 20.2672C36.4982 20.2672 42.4142 26.0198 46.0432 31.9066C49.6662 37.7876 51.8308 42.4142 50.5005 48.8261C54.6896 44.2228 57.0116 38.2252 57 32C57 25.448 54.4795 19.4737 50.3372 15.0163ZM41.3057 34.4154C39.0012 31.8366 36.6149 29.3279 34.1587 26.895C33.4702 26.2123 32.741 25.4947 31.9708 24.7538C31.9708 24.7538 30.8156 25.909 29.3221 27.4259V27.42C27.4026 29.3629 24.9113 31.8891 23.5286 33.371C21.0665 35.9965 14.0129 44.2403 13.622 48.8669C13.622 48.8669 12.0525 45.203 15.4948 36.7432C17.741 31.2065 24.5379 22.9101 27.3734 20.203C27.3734 20.203 24.7771 17.3559 21.5274 15.3839L21.5041 15.3781C21.5041 15.3781 21.4633 15.3489 21.4166 15.3197C19.853 14.3862 18.1377 13.6628 16.4983 13.5636C14.8238 13.6861 13.7562 14.9171 13.7562 14.9171C9.40961 19.5321 6.98837 25.6522 7.00004 32.0058C7.00004 45.8156 18.1902 57.0058 32.0058 57.0058C39.3337 57.0058 45.9206 53.8494 50.5005 48.8202C50.5005 48.8144 49.9755 45.518 46.6149 40.7864C45.8156 39.6837 42.9335 36.2298 41.3057 34.4154V34.4154Z" fill="white"/>
</svg>
