<?xml version="1.0" encoding="utf-8"?>
<!-- Generator: Adobe Illustrator 27.2.0, SVG Export Plug-In . SVG Version: 6.00 Build 0)  -->
<svg version="1.1" id="_x3C_Layer_x3E_" xmlns="http://www.w3.org/2000/svg" xmlns:xlink="http://www.w3.org/1999/xlink" x="0px"
	 y="0px" viewBox="0 0 43.6 39.5" style="enable-background:new 0 0 43.6 39.5;" xml:space="preserve">
<style type="text/css">
	.st0{fill:#F37021;}
	.st1{fill:#72BF44;}
</style>
<g>
	<path class="st0" d="M34.6,2.3c-0.6-0.7-1.7-0.8-2.5-0.2c-0.2,0.2-5.6,4.5-11.3,0.3C20.1,1.9,19,2,18.4,2.8
		c-0.6,0.8-0.4,1.9,0.4,2.4c6.4,4.7,13,1.7,15.6-0.5C35.1,4.2,35.2,3.1,34.6,2.3z"/>
	<path class="st0" d="M32.4,1.9c-3,1.7-8.1,6.8-6,14.4c0.3,0.9,1.2,1.5,2.1,1.2c0.9-0.3,1.5-1.2,1.2-2.2C27.9,8.6,33.9,5.1,34.1,5
		c0.8-0.5,1.1-1.5,0.7-2.4C34.3,1.8,33.3,1.4,32.4,1.9z"/>
</g>
<g>
	<path class="st1" d="M12.9,0c-0.9,0.2-1.6,1.1-1.4,2c0.1,0.3,1.2,7.1-5.2,10.1c-0.9,0.4-1.3,1.4-0.9,2.3c0.4,0.9,1.4,1.3,2.3,0.9
		C15,12,15.6,4.8,15,1.4C14.8,0.5,13.9-0.2,12.9,0z"/>
	<path class="st1" d="M11.5,1.8c0,3.4,2,10.4,9.7,12.3c0.9,0.2,1.9-0.3,2.1-1.3c0.2-0.9-0.3-1.9-1.3-2.1c-6.9-1.7-7-8.6-7-8.9
		c0-1-0.8-1.7-1.8-1.7C12.2,0,11.5,0.8,11.5,1.8z"/>
</g>
<g>
	<path class="st0" d="M0.1,17.7c-0.3,0.9,0.2,1.9,1.1,2.2C1.5,20,8,22.3,7.4,29.3c-0.1,1,0.6,1.8,1.6,1.9c1,0.1,1.8-0.6,1.9-1.6
		c0.6-7.9-5.4-12-8.6-13C1.4,16.3,0.4,16.7,0.1,17.7z"/>
	<path class="st0" d="M0.9,19.8c3,1.7,10.1,3.3,15.4-2.4c0.7-0.7,0.6-1.8-0.1-2.5c-0.7-0.7-1.8-0.6-2.5,0.1
		c-4.8,5.2-10.9,1.9-11.2,1.8c-0.8-0.5-1.9-0.2-2.4,0.7C-0.2,18.2,0,19.3,0.9,19.8z"/>
</g>
<g>
	<path class="st1" d="M9.1,37.5c0.6,0.7,1.7,0.8,2.5,0.2c0.2-0.2,5.5-4.6,11.3-0.5c0.8,0.6,1.9,0.4,2.4-0.4c0.6-0.8,0.4-1.9-0.4-2.4
		c-6.4-4.6-13-1.6-15.6,0.7C8.6,35.7,8.5,36.8,9.1,37.5z"/>
	<path class="st1" d="M11.3,37.9c3-1.7,8-6.9,5.9-14.5c-0.3-0.9-1.2-1.5-2.2-1.2c-0.9,0.3-1.5,1.2-1.2,2.2c1.9,6.8-4,10.3-4.2,10.5
		c-0.8,0.5-1.1,1.6-0.6,2.4C9.4,38.1,10.5,38.4,11.3,37.9z"/>
</g>
<g>
	<path class="st0" d="M30.7,39.5c0.9-0.2,1.6-1.1,1.4-2c0-0.3-1.1-7.1,5.4-9.9c0.9-0.4,1.3-1.4,0.9-2.3c-0.4-0.9-1.4-1.3-2.3-0.9
		c-7.2,3.1-8.1,10.3-7.5,13.7C28.8,39,29.7,39.6,30.7,39.5z"/>
	<path class="st0" d="M32.1,37.8c0.1-3.4-1.8-10.5-9.4-12.5c-0.9-0.3-1.9,0.3-2.2,1.2c-0.3,0.9,0.3,1.9,1.2,2.1
		c6.8,1.9,6.8,8.8,6.8,9.1c0,1,0.7,1.8,1.7,1.8C31.3,39.5,32.1,38.8,32.1,37.8z"/>
</g>
<g>
	<path class="st1" d="M43.5,22.3c0.4-0.9,0-1.9-0.9-2.3c-0.3-0.1-6.6-2.9-5.5-9.9c0.1-1-0.5-1.9-1.5-2c-1-0.1-1.9,0.5-2,1.5
		c-1.2,7.8,4.5,12.3,7.7,13.6C42.1,23.6,43.1,23.2,43.5,22.3z"/>
	<path class="st1" d="M42.8,20.1c-2.9-1.9-9.8-4-15.6,1.3c-0.7,0.7-0.8,1.8-0.1,2.5c0.7,0.7,1.8,0.8,2.5,0.1c5.2-4.8,11-1.1,11.3-1
		c0.8,0.5,1.9,0.3,2.4-0.5C43.9,21.7,43.6,20.7,42.8,20.1z"/>
</g>
</svg>
